<?xml version="1.0" standalone="no"?>
<!DOCTYPE svg PUBLIC "-//W3C//DTD SVG 20010904//EN"
 "http://www.w3.org/TR/2001/REC-SVG-20010904/DTD/svg10.dtd">
<svg version="1.0" xmlns="http://www.w3.org/2000/svg"
 width="1451.000000pt" height="426.000000pt" viewBox="0 0 1451.000000 426.000000"
 preserveAspectRatio="xMidYMid meet">

<g transform="translate(0.000000,426.000000) scale(0.100000,-0.100000)"
fill="#000000" stroke="none">
<path d="M3445 4220 c-238 -25 -448 -210 -504 -444 -15 -63 -15 -199 0 -262
46 -193 206 -363 399 -425 47 -15 92 -21 165 -22 126 0 231 32 336 104 l71 49
564 -2 565 -3 -632 -890 c-347 -490 -658 -927 -690 -972 l-59 -83 48 -24 c252
-128 388 -449 306 -727 -21 -71 -77 -177 -121 -228 l-35 -41 842 0 841 0 27
-26 c69 -66 176 -124 273 -149 48 -13 92 -16 179 -13 99 4 126 9 195 36 188
75 330 235 380 427 20 77 20 223 0 300 -44 172 -171 329 -326 403 -109 52
-173 66 -289 65 -147 -1 -278 -51 -401 -154 l-47 -39 -356 0 c-196 0 -356 2
-356 5 0 3 336 494 748 1093 411 598 753 1100 760 1115 9 20 12 111 12 335 0
352 -1 359 -80 400 l-44 22 -1154 0 -1154 0 -47 34 c-126 92 -267 131 -416
116z"/>
<path d="M118 4169 c-23 -12 -46 -35 -58 -59 -20 -39 -20 -51 -18 -1899 l3
-1860 21 -27 c11 -15 33 -37 48 -48 27 -21 32 -21 1331 -24 l1304 -2 63 -48
c125 -94 269 -138 419 -128 317 21 564 267 585 583 25 373 -285 682 -661 660
-148 -9 -273 -61 -379 -158 l-54 -49 -741 0 -741 0 0 300 0 300 601 0 601 0
54 -50 c212 -193 546 -180 753 30 102 103 153 231 153 380 0 149 -51 277 -153
380 -207 210 -541 223 -753 30 l-54 -50 -333 0 -332 0 -66 -64 c-103 -98 -215
-146 -345 -146 -133 1 -243 44 -339 132 -111 103 -169 239 -169 398 -1 157 55
285 172 394 197 182 493 174 684 -18 34 -34 70 -78 81 -99 l20 -37 600 2 c524
3 600 5 602 18 2 8 -15 26 -38 40 -65 39 -163 152 -208 240 -153 293 -83 668
160 860 l51 40 -1414 0 c-1387 -1 -1414 -1 -1450 -21z"/>
<path d="M8980 3366 c-83 -19 -124 -40 -181 -93 -64 -59 -99 -128 -123 -235
l-6 -28 133 0 133 0 14 42 c20 56 59 83 117 82 88 -2 140 -98 93 -172 -21 -35
-72 -62 -115 -62 -25 0 -25 0 -25 -89 l0 -90 35 6 c51 8 122 -22 146 -61 23
-38 25 -125 4 -166 -42 -81 -189 -89 -255 -14 -17 20 -33 51 -36 74 l-7 40
-145 0 -145 0 7 -62 c13 -130 101 -250 224 -306 192 -88 453 -48 575 87 131
145 121 382 -20 471 -25 16 -51 31 -57 33 -6 2 4 16 22 32 57 48 77 98 77 195
0 67 -5 96 -24 137 -65 145 -253 221 -441 179z"/>
<path d="M9915 3363 c-116 -25 -208 -81 -265 -161 -45 -63 -80 -162 -80 -228
l0 -44 155 0 155 0 0 39 c0 52 14 86 46 116 22 20 37 25 80 25 96 0 146 -72
124 -178 -23 -104 -124 -241 -367 -494 -87 -90 -171 -179 -187 -196 l-30 -32
452 0 452 0 0 125 0 125 -180 0 -180 0 135 131 c116 113 141 143 173 207 35
72 37 81 37 172 0 86 -3 101 -32 162 -54 114 -147 188 -280 223 -53 14 -162
18 -208 8z"/>
<path d="M6940 2775 l0 -565 320 0 320 0 0 125 0 125 -175 0 -175 0 0 95 0 95
165 0 165 0 0 125 0 125 -165 0 -165 0 0 95 0 95 175 0 175 0 0 125 0 125
-320 0 -320 0 0 -565z"/>
<path d="M7700 3215 l0 -125 220 0 c121 0 220 -3 220 -6 0 -3 -117 -199 -260
-434 -143 -235 -260 -431 -260 -434 0 -3 216 -6 480 -6 l480 0 0 125 0 125
-235 2 -236 3 257 425 c141 234 259 431 261 438 4 9 -92 12 -461 12 l-466 0 0
-125z"/>
<path d="M10970 2775 l0 -565 145 0 145 0 0 565 0 565 -145 0 -145 0 0 -565z"/>
<path d="M11838 2989 c-68 -10 -102 -26 -143 -68 -16 -17 -33 -31 -37 -31 -5
0 -8 20 -8 45 l0 45 -135 0 -135 0 0 -385 0 -385 134 0 134 0 4 233 c3 257 7
274 67 314 40 27 98 30 142 7 53 -27 59 -58 59 -319 l0 -235 136 0 135 0 -3
303 c-3 301 -3 302 -28 347 -57 102 -174 149 -322 129z"/>
<path d="M12546 2981 c-351 -116 -382 -596 -48 -754 63 -30 74 -32 177 -32 71
1 124 6 150 15 l40 15 3 113 c1 61 1 112 -1 112 -1 0 -20 -9 -42 -20 -89 -45
-209 -13 -254 69 -56 103 -16 221 91 266 57 23 99 19 191 -20 16 -7 17 2 17
104 l0 112 -37 16 c-60 26 -214 28 -287 4z"/>
<path d="M8780 1415 l0 -485 105 0 105 0 0 123 1 122 119 -122 118 -123 148 0
149 0 -160 160 -160 161 50 47 c28 26 95 89 150 139 l100 93 -145 0 -145 0
-105 -105 c-58 -58 -108 -105 -112 -105 -5 0 -8 131 -8 290 l0 290 -105 0
-105 0 0 -485z"/>
<path d="M7010 1738 c-7 -40 -40 -238 -75 -440 l-62 -368 112 0 c109 0 113 1
118 23 3 12 20 124 38 249 18 125 36 224 40 220 3 -4 49 -116 100 -249 l94
-243 45 0 46 0 98 243 c55 133 102 245 106 250 3 4 19 -77 34 -180 15 -104 32
-216 38 -250 l10 -63 114 0 c114 0 114 0 109 23 -6 23 -145 842 -145 851 0 3
-51 6 -114 6 l-114 0 -30 -77 c-16 -43 -53 -143 -82 -223 -29 -80 -56 -149
-60 -153 -4 -4 -46 95 -93 220 l-85 228 -115 3 -115 3 -12 -73z"/>
<path d="M10550 1370 l0 -440 115 0 115 0 0 440 0 440 -115 0 -115 0 0 -440z"/>
<path d="M11590 1370 l0 -440 250 0 250 0 0 95 0 95 -135 0 -135 0 0 80 0 80
130 0 130 0 0 95 0 95 -130 0 -130 0 0 75 0 75 135 0 135 0 0 95 0 95 -250 0
-250 0 0 -440z"/>
<path d="M14220 1520 l0 -290 105 0 105 0 0 290 0 290 -105 0 -105 0 0 -290z"/>
<path d="M10910 1620 l0 -90 -35 0 -35 0 0 -90 0 -90 35 0 35 0 0 -210 0 -210
105 0 105 0 0 210 0 210 60 0 60 0 0 90 0 90 -60 0 -60 0 0 90 0 90 -105 0
-105 0 0 -90z"/>
<path d="M9770 1554 c-114 -22 -200 -85 -241 -177 -19 -42 -24 -69 -24 -142 0
-79 4 -97 28 -147 56 -115 160 -172 312 -171 142 1 219 39 275 136 16 29 30
55 30 60 0 4 -45 7 -100 7 -92 0 -101 -2 -123 -24 -70 -70 -192 -28 -212 72
l-7 32 228 0 227 0 -6 58 c-4 31 -11 73 -17 93 -24 84 -106 166 -189 189 -44
12 -147 20 -181 14z m130 -149 c25 -13 60 -60 60 -80 0 -3 -54 -5 -120 -5
-132 0 -138 4 -99 54 37 47 104 60 159 31z"/>
<path d="M13113 1550 c-93 -20 -163 -76 -183 -148 -13 -47 -13 -84 1 -119 22
-59 57 -81 191 -118 68 -18 85 -47 47 -78 -31 -25 -98 -18 -168 18 l-51 25
-35 -70 c-19 -38 -35 -72 -35 -75 0 -13 109 -55 171 -65 75 -13 169 -1 228 30
98 50 145 162 107 254 -26 61 -71 91 -176 116 -63 15 -80 25 -80 51 0 38 80
52 145 24 l35 -14 31 61 c17 33 34 57 38 52 4 -5 67 -115 140 -246 l132 -236
-101 -187 c-55 -102 -100 -188 -100 -191 0 -3 53 -3 117 -2 l118 3 237 440
c130 242 237 443 237 448 1 4 -53 7 -119 7 l-120 0 -75 -150 c-41 -82 -77
-150 -79 -150 -3 0 -40 68 -83 150 l-78 150 -125 0 c-69 0 -140 4 -158 9 -51
15 -163 21 -209 11z"/>
<path d="M8228 1537 c-186 -53 -272 -278 -177 -466 77 -150 266 -205 399 -116
l50 34 0 -30 0 -29 105 0 105 0 0 300 0 300 -105 0 -105 0 0 -25 c0 -25 -14
-33 -25 -15 -14 22 -88 51 -142 55 -33 3 -78 -1 -105 -8z m185 -181 c55 -23
87 -69 87 -128 0 -45 -4 -54 -38 -88 -48 -49 -96 -59 -149 -34 -110 54 -109
201 2 250 39 17 58 17 98 0z"/>
<path d="M12358 1537 c-186 -53 -272 -278 -177 -466 77 -150 266 -205 399
-116 l50 34 0 -30 0 -29 105 0 105 0 0 300 0 300 -105 0 -105 0 0 -25 c0 -25
-14 -33 -25 -15 -14 22 -88 51 -142 55 -33 3 -78 -1 -105 -8z m185 -181 c55
-23 87 -69 87 -128 0 -45 -4 -54 -38 -88 -48 -49 -96 -59 -149 -34 -110 54
-109 201 2 250 39 17 58 17 98 0z"/>
<path d="M14261 1162 c-68 -37 -91 -129 -48 -193 28 -41 60 -59 110 -59 140 0
190 187 66 250 -48 25 -85 25 -128 2z"/>
</g>
</svg>
